<svg width="current" height="current" viewBox="0 0 16 16" fill="none" xmlns="http://www.w3.org/2000/svg">
<path d="M14.2649 4.76541L6.26492 12.7654C6.19461 12.8356 6.0993 12.8751 5.99992 12.8751C5.90055 12.8751 5.80524 12.8356 5.73492 12.7654L2.23492 9.26541C2.16868 9.19432 2.13262 9.1003 2.13434 9.00315C2.13605 8.906 2.17541 8.81331 2.24411 8.7446C2.31282 8.67589 2.40551 8.63654 2.50266 8.63482C2.59981 8.63311 2.69384 8.66917 2.76492 8.73541L5.99992 11.9698L13.7349 4.23541C13.806 4.16917 13.9 4.13311 13.9972 4.13482C14.0943 4.13654 14.187 4.17589 14.2557 4.2446C14.3244 4.31331 14.3638 4.406 14.3655 4.50315C14.3672 4.6003 14.3312 4.69432 14.2649 4.76541Z" fill="white" fill-opacity="0.9"/>
</svg>
