<svg width="24" height="24" viewBox="0 0 24 24" fill="none" xmlns="http://www.w3.org/2000/svg">
<g clip-path="url(#clip0_505_7750)">
<path d="M19.875 10.5003V19.5003C19.875 19.7987 19.7565 20.0848 19.5455 20.2958C19.3345 20.5068 19.0484 20.6253 18.75 20.6253H5.25C4.95163 20.6253 4.66548 20.5068 4.4545 20.2958C4.24353 20.0848 4.125 19.7987 4.125 19.5003V10.5003C4.125 10.2019 4.24353 9.91578 4.4545 9.7048C4.66548 9.49382 4.95163 9.37529 5.25 9.37529H7.5C7.59946 9.37529 7.69484 9.4148 7.76517 9.48513C7.83549 9.55545 7.875 9.65084 7.875 9.75029C7.875 9.84975 7.83549 9.94513 7.76517 10.0155C7.69484 10.0858 7.59946 10.1253 7.5 10.1253H5.25C5.15054 10.1253 5.05516 10.1648 4.98484 10.2351C4.91451 10.3055 4.875 10.4008 4.875 10.5003V19.5003C4.875 19.5997 4.91451 19.6951 4.98484 19.7655C5.05516 19.8358 5.15054 19.8753 5.25 19.8753H18.75C18.8495 19.8753 18.9448 19.8358 19.0152 19.7655C19.0855 19.6951 19.125 19.5997 19.125 19.5003V10.5003C19.125 10.4008 19.0855 10.3055 19.0152 10.2351C18.9448 10.1648 18.8495 10.1253 18.75 10.1253H16.5C16.4005 10.1253 16.3052 10.0858 16.2348 10.0155C16.1645 9.94513 16.125 9.84975 16.125 9.75029C16.125 9.65084 16.1645 9.55545 16.2348 9.48513C16.3052 9.4148 16.4005 9.37529 16.5 9.37529H18.75C19.0484 9.37529 19.3345 9.49382 19.5455 9.7048C19.7565 9.91578 19.875 10.2019 19.875 10.5003ZM8.51531 6.26561L11.625 3.15592V12.7503C11.625 12.8497 11.6645 12.9451 11.7348 13.0155C11.8052 13.0858 11.9005 13.1253 12 13.1253C12.0995 13.1253 12.1948 13.0858 12.2652 13.0155C12.3355 12.9451 12.375 12.8497 12.375 12.7503V3.15592L15.4847 6.26561C15.5195 6.30045 15.5609 6.32809 15.6064 6.34694C15.6519 6.3658 15.7007 6.3755 15.75 6.3755C15.7993 6.3755 15.8481 6.3658 15.8936 6.34694C15.9391 6.32809 15.9805 6.30045 16.0153 6.26561C16.0502 6.23077 16.0778 6.1894 16.0966 6.14388C16.1155 6.09836 16.1252 6.04957 16.1252 6.00029C16.1252 5.95102 16.1155 5.90223 16.0966 5.85671C16.0778 5.81119 16.0502 5.76982 16.0153 5.73498L12.2653 1.98498C12.2305 1.95012 12.1891 1.92246 12.1436 1.90359C12.0981 1.88471 12.0493 1.875 12 1.875C11.9507 1.875 11.9019 1.88471 11.8564 1.90359C11.8109 1.92246 11.7695 1.95012 11.7347 1.98498L7.98469 5.73498C7.94985 5.76982 7.92221 5.81119 7.90335 5.85671C7.8845 5.90223 7.87479 5.95102 7.87479 6.00029C7.87479 6.04957 7.8845 6.09836 7.90335 6.14388C7.92221 6.1894 7.94985 6.23077 7.98469 6.26561C8.05505 6.33597 8.15049 6.3755 8.25 6.3755C8.29927 6.3755 8.34806 6.3658 8.39359 6.34694C8.43911 6.32809 8.48047 6.30045 8.51531 6.26561Z" fill="white" fill-opacity="0.9"/>
</g>
<defs>
<clipPath id="clip0_505_7750">
<rect width="24" height="24" fill="white"/>
</clipPath>
</defs>
</svg>
