<svg width="16" height="16" viewBox="0 0 16 16" fill="none" xmlns="http://www.w3.org/2000/svg">
<g clip-path="url(#clip0_75_420)">
<path d="M15.3424 7.84812C15.3212 7.79938 14.8012 6.64625 13.6399 5.485C12.5624 4.40875 10.7112 3.125 7.99991 3.125C5.28866 3.125 3.43741 4.40875 2.35991 5.485C1.19866 6.64625 0.678659 7.7975 0.657409 7.84812C0.636042 7.89613 0.625 7.94808 0.625 8.00062C0.625 8.05317 0.636042 8.10512 0.657409 8.15312C0.678659 8.20125 1.19866 9.35437 2.35991 10.5156C3.43741 11.5919 5.28866 12.875 7.99991 12.875C10.7112 12.875 12.5624 11.5919 13.6399 10.5156C14.8012 9.35437 15.3212 8.20312 15.3424 8.15312C15.3638 8.10512 15.3748 8.05317 15.3748 8.00062C15.3748 7.94808 15.3638 7.89613 15.3424 7.84812ZM7.99991 12.125C6.03866 12.125 4.32616 11.4113 2.90928 10.0044C2.31533 9.41409 1.81272 8.73854 1.41803 8C1.81261 7.26158 2.31523 6.58622 2.90928 5.99625C4.32616 4.58875 6.03866 3.875 7.99991 3.875C9.96116 3.875 11.6737 4.58875 13.0905 5.99625C13.6846 6.58622 14.1872 7.26158 14.5818 8C14.1837 8.76312 12.1874 12.125 7.99991 12.125ZM7.99991 5.125C7.43129 5.125 6.87544 5.29362 6.40264 5.60952C5.92985 5.92543 5.56136 6.37445 5.34376 6.89979C5.12615 7.42512 5.06922 8.00319 5.18015 8.56088C5.29108 9.11858 5.5649 9.63086 5.96698 10.0329C6.36905 10.435 6.88133 10.7088 7.43902 10.8198C7.99672 10.9307 8.57479 10.8738 9.10012 10.6562C9.62546 10.4386 10.0745 10.0701 10.3904 9.59726C10.7063 9.12447 10.8749 8.56862 10.8749 8C10.8739 7.23781 10.5707 6.50712 10.0317 5.96816C9.49279 5.42921 8.7621 5.12599 7.99991 5.125ZM7.99991 10.125C7.57962 10.125 7.16878 10.0004 6.81932 9.76687C6.46987 9.53338 6.1975 9.20149 6.03666 8.8132C5.87583 8.42491 5.83375 7.99764 5.91574 7.58543C5.99773 7.17322 6.20012 6.79458 6.49731 6.4974C6.79449 6.20021 7.17313 5.99782 7.58534 5.91583C7.99755 5.83384 8.42482 5.87592 8.81311 6.03676C9.2014 6.19759 9.53328 6.46996 9.76678 6.81941C10.0003 7.16887 10.1249 7.57971 10.1249 8C10.1249 8.56359 9.90102 9.10409 9.50251 9.5026C9.104 9.90112 8.56349 10.125 7.99991 10.125Z" fill="#7A7399"/>
</g>
<defs>
<clipPath id="clip0_75_420">
<rect width="16" height="16" fill="white"/>
</clipPath>
</defs>
</svg>
