<svg width="16" height="16" viewBox="0 0 16 16" fill="none" xmlns="http://www.w3.org/2000/svg">
<g clip-path="url(#clip0_75_422)">
<path d="M14.3256 10.3124C14.3754 10.3988 14.3888 10.5013 14.3629 10.5976C14.3369 10.6938 14.2739 10.7758 14.1875 10.8255C14.1012 10.8753 13.9986 10.8886 13.9023 10.8627C13.8061 10.8368 13.7241 10.7738 13.6744 10.6874L12.4244 8.4949C11.6852 9.01309 10.8599 9.39591 9.98689 9.62552L10.3725 11.938C10.3807 11.9866 10.3792 12.0363 10.3681 12.0843C10.357 12.1323 10.3366 12.1777 10.3079 12.2178C10.2793 12.2579 10.2431 12.292 10.2013 12.3181C10.1595 12.3442 10.113 12.3618 10.0644 12.3699C10.0437 12.3731 10.0228 12.3748 10.0019 12.3749C9.91334 12.3748 9.82767 12.3434 9.76007 12.2862C9.69246 12.229 9.64728 12.1497 9.63252 12.0624L9.25002 9.7774C8.42176 9.90753 7.57827 9.90753 6.75002 9.7774L6.37002 12.0624C6.35524 12.1498 6.30997 12.2292 6.24223 12.2864C6.1745 12.3436 6.08868 12.375 6.00002 12.3749C5.97909 12.3748 5.9582 12.3731 5.93752 12.3699C5.88892 12.3617 5.8424 12.344 5.80063 12.3179C5.75887 12.2917 5.72267 12.2576 5.69411 12.2174C5.66555 12.1772 5.64519 12.1318 5.63419 12.0838C5.6232 12.0357 5.62178 11.986 5.63002 11.9374L6.01564 9.6249C5.14262 9.39528 4.31731 9.01247 3.57814 8.49428L2.32564 10.6874C2.27592 10.7738 2.19392 10.8368 2.09769 10.8627C2.00146 10.8886 1.89888 10.8753 1.81252 10.8255C1.72616 10.7758 1.66309 10.6938 1.63718 10.5976C1.61128 10.5013 1.62467 10.3988 1.67439 10.3124L2.97752 8.0324C2.51392 7.64121 2.08885 7.20652 1.70814 6.73428C1.64565 6.65687 1.61647 6.5578 1.62702 6.45888C1.63757 6.35995 1.68698 6.26927 1.76439 6.20677C1.8418 6.14428 1.94087 6.1151 2.03979 6.12565C2.13872 6.1362 2.2294 6.18561 2.29189 6.26303C3.34627 7.56928 5.19189 9.1249 8.00002 9.1249C10.8081 9.1249 12.6538 7.56928 13.7081 6.26428C13.7706 6.18687 13.8613 6.13745 13.9602 6.1269C14.0592 6.11635 14.1582 6.14553 14.2356 6.20803C14.3131 6.27052 14.3625 6.3612 14.373 6.46013C14.3836 6.55905 14.3544 6.65811 14.2919 6.73552C13.9112 7.20777 13.4861 7.64246 13.0225 8.03365L14.3256 10.3124Z" fill="#7A7399"/>
</g>
<defs>
<clipPath id="clip0_75_422">
<rect width="16" height="16" fill="white"/>
</clipPath>
</defs>
</svg>
