<svg width="24" height="24" viewBox="0 0 24 24" fill="none" xmlns="http://www.w3.org/2000/svg">
<g clip-path="url(#clip0_523_13278)">
<path d="M21.0459 7.14362L16.8563 2.95393C16.7517 2.84905 16.6275 2.76584 16.4908 2.70906C16.3541 2.65228 16.2074 2.62305 16.0594 2.62305C15.9113 2.62305 15.7647 2.65228 15.628 2.70906C15.4912 2.76584 15.367 2.84905 15.2625 2.95393L3.70406 14.5152C3.49337 14.7261 3.37501 15.0121 3.375 15.3102V19.4999C3.375 19.7982 3.49353 20.0844 3.7045 20.2954C3.91548 20.5063 4.20163 20.6249 4.5 20.6249H20.25C20.3495 20.6249 20.4448 20.5854 20.5152 20.515C20.5855 20.4447 20.625 20.3493 20.625 20.2499C20.625 20.1504 20.5855 20.055 20.5152 19.9847C20.4448 19.9144 20.3495 19.8749 20.25 19.8749H9.90563L21.0459 8.73456C21.2569 8.52358 21.3754 8.23745 21.3754 7.93909C21.3754 7.64073 21.2569 7.3546 21.0459 7.14362ZM6.90563 17.6249L15.375 9.1555L17.4703 11.2499L9 19.7192L6.90563 17.6249ZM6.375 17.0942L4.28062 14.9999L12.75 6.5305L14.8453 8.62487L6.375 17.0942ZM4.125 19.4999V15.9055L6.10969 17.8902L8.09437 19.8749H4.5C4.40054 19.8749 4.30516 19.8354 4.23484 19.765C4.16451 19.6947 4.125 19.5993 4.125 19.4999ZM20.5153 8.20393L18 10.7192L13.2806 5.99987L15.7959 3.48456C15.8308 3.44969 15.8721 3.42203 15.9176 3.40316C15.9632 3.38429 16.012 3.37458 16.0613 3.37458C16.1105 3.37458 16.1593 3.38429 16.2049 3.40316C16.2504 3.42203 16.2917 3.44969 16.3266 3.48456L20.5153 7.67425C20.5854 7.74455 20.6248 7.83979 20.6248 7.93909C20.6248 8.03839 20.5854 8.13363 20.5153 8.20393Z" fill="#7A7399"/>
</g>
<defs>
<clipPath id="clip0_523_13278">
<rect width="24" height="24" fill="white"/>
</clipPath>
</defs>
</svg>
