<svg width="32" height="32" viewBox="0 0 32 32" fill="none" xmlns="http://www.w3.org/2000/svg">
<g clip-path="url(#clip0_420_1957)">
<path d="M30.2075 7.83497C29.3663 6.38747 26.885 6.10997 23.2075 7.04747C21.4042 5.5963 19.2049 4.7231 16.8972 4.54207C14.5896 4.36104 12.281 4.88059 10.2734 6.0328C8.26586 7.185 6.6527 8.91622 5.64493 11.0001C4.63716 13.0839 4.28169 15.4233 4.625 17.7125C1.9525 20.4237 0.945 22.7125 1.79 24.165C2.30625 25.0537 3.415 25.5037 5.04 25.5037C6.07944 25.485 7.1138 25.3538 8.125 25.1125C8.3425 25.0637 8.565 25.01 8.79 24.9525C10.4794 26.312 12.5187 27.1662 14.6727 27.4165C16.8267 27.6668 19.0076 27.3029 20.9637 26.367C22.9197 25.431 24.5713 23.9611 25.7279 22.1267C26.8844 20.2924 27.4988 18.1685 27.5 16C27.5009 15.4256 27.4591 14.8519 27.375 14.2837C28.9713 12.6587 30.0387 11.1237 30.375 9.84997C30.5863 9.06747 30.5288 8.38997 30.2075 7.83497ZM16 5.49997C18.4274 5.50291 20.779 6.34548 22.6559 7.88474C24.5328 9.424 25.8194 11.5652 26.2975 13.945C24.2763 15.9062 21.4475 18.005 18.2362 19.85C14.8225 21.8112 11.635 23.1312 9.035 23.85C7.44343 22.4361 6.31921 20.5719 5.81142 18.5045C5.30363 16.4371 5.43624 14.2642 6.19169 12.2739C6.94714 10.2836 8.28972 8.56996 10.0414 7.36018C11.7931 6.15041 13.8712 5.50166 16 5.49997ZM2.65625 23.6625C2.125 22.75 2.96875 20.9625 4.875 18.905C5.39186 20.8845 6.42747 22.6904 7.875 24.1362C5.1075 24.75 3.18375 24.5725 2.65625 23.6625ZM16 26.5C13.8536 26.5021 11.7586 25.843 10 24.6125C12.6975 23.79 15.7288 22.4412 18.7313 20.7175C21.7625 18.975 24.4325 17.035 26.46 15.1625C26.4825 15.4387 26.4975 15.7175 26.4975 16C26.4942 18.7833 25.3872 21.4517 23.4194 23.4201C21.4515 25.3884 18.7833 26.496 16 26.5ZM29.41 9.59122C29.1437 10.5912 28.3375 11.7975 27.1287 13.0987C26.6087 11.1146 25.5677 9.3055 24.1138 7.85872C26.845 7.25622 28.8125 7.42622 29.3425 8.33747C29.525 8.65372 29.5487 9.07497 29.41 9.59122Z" fill="white" fill-opacity="0.9"/>
</g>
<defs>
<clipPath id="clip0_420_1957">
<rect width="32" height="32" fill="white"/>
</clipPath>
</defs>
</svg>
