<svg width="24" height="24" viewBox="0 0 24 24" fill="none" xmlns="http://www.w3.org/2000/svg">
<g clip-path="url(#clip0_673_186)">
<path d="M21.3243 20.0628C19.7755 17.3853 17.293 15.5572 14.4168 14.8981C15.7835 14.3382 16.9134 13.321 17.6134 12.0204C18.3135 10.7198 18.5402 9.21655 18.2548 7.76738C17.9694 6.31821 17.1897 5.01308 16.0489 4.07498C14.9081 3.13688 13.4769 2.62402 11.9999 2.62402C10.5229 2.62402 9.09173 3.13688 7.9509 4.07498C6.81007 5.01308 6.03037 6.31821 5.74501 7.76738C5.45966 9.21655 5.68636 10.7198 6.38637 12.0204C7.08639 13.321 8.21629 14.3382 9.58303 14.8981C6.71053 15.5544 4.22428 17.3853 2.67553 20.0628C2.6307 20.1485 2.62071 20.2482 2.64766 20.3411C2.67461 20.434 2.73641 20.5129 2.82015 20.5613C2.90388 20.6097 3.00309 20.6239 3.09703 20.6009C3.19097 20.5779 3.27239 20.5194 3.32428 20.4378C5.15616 17.2681 8.40178 15.3753 11.9999 15.3753C15.598 15.3753 18.8437 17.2681 20.6755 20.4378C20.7084 20.4948 20.7557 20.5421 20.8126 20.575C20.8696 20.6079 20.9341 20.6252 20.9999 20.6253C21.0658 20.6255 21.1306 20.608 21.1874 20.5747C21.2734 20.5249 21.3361 20.443 21.3617 20.3471C21.3874 20.2511 21.3739 20.1489 21.3243 20.0628ZM6.37491 9.00031C6.37491 7.88779 6.70481 6.80025 7.32289 5.87522C7.94097 4.9502 8.81948 4.22923 9.84731 3.80348C10.8751 3.37774 12.0061 3.26635 13.0973 3.48339C14.1884 3.70043 15.1907 4.23616 15.9774 5.02283C16.7641 5.8095 17.2998 6.81178 17.5168 7.90292C17.7339 8.99407 17.6225 10.1251 17.1967 11.1529C16.771 12.1807 16.05 13.0592 15.125 13.6773C14.2 14.2954 13.1124 14.6253 11.9999 14.6253C10.5086 14.6236 9.07887 14.0304 8.02435 12.9759C6.96983 11.9213 6.37664 10.4916 6.37491 9.00031Z" fill="white"/>
</g>
<defs>
<clipPath id="clip0_673_186">
<rect width="24" height="24" fill="white"/>
</clipPath>
</defs>
</svg>
