<svg width="24" height="24" viewBox="0 0 24 24" fill="none" xmlns="http://www.w3.org/2000/svg">
<g clip-path="url(#clip0_703_3682)">
<path d="M19.0155 18.4847C19.0859 18.555 19.1254 18.6505 19.1254 18.75C19.1254 18.8495 19.0859 18.9449 19.0155 19.0153C18.9452 19.0856 18.8497 19.1252 18.7502 19.1252C18.6507 19.1252 18.5553 19.0856 18.4849 19.0153L12.0002 12.5306L5.51552 19.0153C5.44516 19.0856 5.34972 19.1252 5.25021 19.1252C5.1507 19.1252 5.05526 19.0856 4.9849 19.0153C4.91453 18.9449 4.875 18.8495 4.875 18.75C4.875 18.6505 4.91453 18.555 4.9849 18.4847L11.4696 12L4.9849 5.51528C4.91453 5.44491 4.875 5.34948 4.875 5.24996C4.875 5.15045 4.91453 5.05502 4.9849 4.98465C5.05526 4.91429 5.1507 4.87476 5.25021 4.87476C5.34972 4.87476 5.44516 4.91429 5.51552 4.98465L12.0002 11.4693L18.4849 4.98465C18.5197 4.94981 18.5611 4.92217 18.6066 4.90332C18.6521 4.88446 18.7009 4.87476 18.7502 4.87476C18.7995 4.87476 18.8483 4.88446 18.8938 4.90332C18.9393 4.92217 18.9807 4.94981 19.0155 4.98465C19.0504 5.01949 19.078 5.06086 19.0969 5.10638C19.1157 5.1519 19.1254 5.20069 19.1254 5.24996C19.1254 5.29924 19.1157 5.34803 19.0969 5.39355C19.078 5.43907 19.0504 5.48044 19.0155 5.51528L12.5308 12L19.0155 18.4847Z" fill="white"/>
</g>
<defs>
<clipPath id="clip0_703_3682">
<rect width="24" height="24" fill="white"/>
</clipPath>
</defs>
</svg>
